<mxfile host="app.diagrams.net" modified="2023-12-31T17:00:39.168Z" agent="Mozilla/5.0 (Windows NT 10.0; Win64; x64) AppleWebKit/537.36 (KHTML, like Gecko) Chrome/120.0.0.0 Safari/537.36" version="21.6.6" etag="nUSQEoni8BCg12vJ4MrH" type="github">
  <diagram name="Page-1" id="bCc448UbQ6UqdEFoNfzu">
    <mxGraphModel>
      <root>
        <mxCell id="0" />
        <mxCell id="1" parent="0" />
      </root>
    </mxGraphModel>
  </diagram>
</mxfile>
